<mxfile modified="2020-08-12T20:09:34.950Z" host="app.diagrams.net" agent="5.0 (Windows)" etag="KGMQQRRMYEYGCAS16XcF" version="13.6.0" type="github">
  <diagram id="C2fSY1v2SiZeoUbDoYyL" name="Page-1">
    <mxGraphModel dx="4702" dy="1476" grid="1" gridSize="10" guides="1" tooltips="1" connect="1" arrows="1" fold="1" page="1" pageScale="1" pageWidth="1169" pageHeight="827" math="0" shadow="0">
      <root>
        <mxCell id="0" />
        <mxCell id="1" parent="0" />
        <mxCell id="ZqBJkxx_JJjRxXynTyVu-28" value="" style="rounded=0;whiteSpace=wrap;html=1;labelBackgroundColor=none;" vertex="1" parent="1">
          <mxGeometry x="36.5" y="100" width="972" height="110" as="geometry" />
        </mxCell>
        <mxCell id="3ne1QswCM8ZiEu4GHsYG-31" value="&lt;div&gt;Flow chart of the core simulation&lt;/div&gt;" style="text;html=1;strokeColor=none;fillColor=none;align=center;verticalAlign=middle;whiteSpace=wrap;rounded=0;fontStyle=1;fontSize=20;fontColor=#4D4D4D;" parent="1" vertex="1">
          <mxGeometry x="189.5" y="50" width="790" height="30" as="geometry" />
        </mxCell>
        <mxCell id="3ne1QswCM8ZiEu4GHsYG-32" value="" style="line;strokeWidth=2;html=1;fontSize=20;fontColor=#4D4D4D;" parent="1" vertex="1">
          <mxGeometry x="103.5" y="80" width="960" height="10" as="geometry" />
        </mxCell>
        <mxCell id="ZqBJkxx_JJjRxXynTyVu-2" value="&lt;div&gt;Pause()&lt;/div&gt;" style="rounded=0;whiteSpace=wrap;html=1;" vertex="1" parent="1">
          <mxGeometry x="300" y="130" width="140" height="60" as="geometry" />
        </mxCell>
        <mxCell id="ZqBJkxx_JJjRxXynTyVu-3" value="Main TImeline Step1 Intro" style="rounded=1;whiteSpace=wrap;html=1;" vertex="1" parent="1">
          <mxGeometry x="36.5" y="130" width="263.5" height="60" as="geometry" />
        </mxCell>
        <mxCell id="ZqBJkxx_JJjRxXynTyVu-6" value="Main Timeline Step2 Intro" style="rounded=1;whiteSpace=wrap;html=1;" vertex="1" parent="1">
          <mxGeometry x="440" y="130" width="263.5" height="60" as="geometry" />
        </mxCell>
        <mxCell id="ZqBJkxx_JJjRxXynTyVu-8" value="" style="line;strokeWidth=2;html=1;fontSize=20;fontColor=#4D4D4D;" vertex="1" parent="1">
          <mxGeometry x="36.5" y="120" width="973.5" height="10" as="geometry" />
        </mxCell>
        <mxCell id="ZqBJkxx_JJjRxXynTyVu-9" value="" style="whiteSpace=wrap;html=1;aspect=fixed;labelBackgroundColor=#FF6666;fillColor=#660000;" vertex="1" parent="1">
          <mxGeometry x="36.5" y="170" width="20" height="20" as="geometry" />
        </mxCell>
        <mxCell id="ZqBJkxx_JJjRxXynTyVu-11" value="" style="whiteSpace=wrap;html=1;fillColor=#660000;" vertex="1" parent="1">
          <mxGeometry x="280" y="170" width="160" height="20" as="geometry" />
        </mxCell>
        <mxCell id="ZqBJkxx_JJjRxXynTyVu-14" value="&lt;div&gt;Ignore Enter Time&lt;/div&gt;&lt;div&gt;&lt;br&gt;&lt;/div&gt;" style="text;html=1;strokeColor=none;fillColor=none;align=center;verticalAlign=middle;whiteSpace=wrap;rounded=0;labelBackgroundColor=none;" vertex="1" parent="1">
          <mxGeometry x="16.5" y="250" width="40" height="20" as="geometry" />
        </mxCell>
        <mxCell id="ZqBJkxx_JJjRxXynTyVu-17" style="orthogonalLoop=1;jettySize=auto;html=1;curved=1;sourcePerimeterSpacing=5;targetPerimeterSpacing=5;" edge="1" parent="1">
          <mxGeometry relative="1" as="geometry">
            <mxPoint x="46" y="230" as="sourcePoint" />
            <mxPoint x="46" y="190" as="targetPoint" />
            <Array as="points">
              <mxPoint x="46" y="255" />
            </Array>
          </mxGeometry>
        </mxCell>
        <mxCell id="ZqBJkxx_JJjRxXynTyVu-18" value="&lt;div&gt;Ignore Exit&lt;/div&gt;&lt;div&gt; Time&lt;/div&gt;&lt;div&gt;&lt;br&gt;&lt;/div&gt;" style="text;html=1;strokeColor=none;fillColor=none;align=center;verticalAlign=middle;whiteSpace=wrap;rounded=0;labelBackgroundColor=none;" vertex="1" parent="1">
          <mxGeometry x="265" y="230" width="50" height="60" as="geometry" />
        </mxCell>
        <mxCell id="ZqBJkxx_JJjRxXynTyVu-19" style="orthogonalLoop=1;jettySize=auto;html=1;curved=1;sourcePerimeterSpacing=5;targetPerimeterSpacing=5;entryX=0.094;entryY=1.033;entryDx=0;entryDy=0;entryPerimeter=0;" edge="1" parent="1" target="ZqBJkxx_JJjRxXynTyVu-11">
          <mxGeometry relative="1" as="geometry">
            <mxPoint x="290" y="240" as="sourcePoint" />
            <mxPoint x="290" y="200" as="targetPoint" />
            <Array as="points" />
          </mxGeometry>
        </mxCell>
        <mxCell id="ZqBJkxx_JJjRxXynTyVu-20" value="" style="whiteSpace=wrap;html=1;labelBackgroundColor=#FF6666;imageAspect=0;fillColor=#D5E8D4;" vertex="1" parent="1">
          <mxGeometry x="50" y="170" width="20" height="20" as="geometry" />
        </mxCell>
        <mxCell id="ZqBJkxx_JJjRxXynTyVu-21" value="&lt;div&gt;TImeline&lt;/div&gt;&lt;div&gt;Signal&lt;/div&gt;&lt;div&gt;&lt;br&gt;&lt;/div&gt;" style="text;html=1;strokeColor=none;fillColor=none;align=center;verticalAlign=middle;whiteSpace=wrap;rounded=0;labelBackgroundColor=none;" vertex="1" parent="1">
          <mxGeometry x="90" y="220" width="50" height="60" as="geometry" />
        </mxCell>
        <mxCell id="ZqBJkxx_JJjRxXynTyVu-22" style="orthogonalLoop=1;jettySize=auto;html=1;curved=1;sourcePerimeterSpacing=5;targetPerimeterSpacing=5;" edge="1" parent="1">
          <mxGeometry relative="1" as="geometry">
            <mxPoint x="114.5" y="220" as="sourcePoint" />
            <mxPoint x="114.5" y="180" as="targetPoint" />
            <Array as="points">
              <mxPoint x="114.5" y="245" />
            </Array>
          </mxGeometry>
        </mxCell>
        <mxCell id="ZqBJkxx_JJjRxXynTyVu-23" value="" style="whiteSpace=wrap;html=1;aspect=fixed;fillColor=#660000;" vertex="1" parent="1">
          <mxGeometry x="683.5" y="170" width="20" height="20" as="geometry" />
        </mxCell>
        <mxCell id="ZqBJkxx_JJjRxXynTyVu-24" value="" style="whiteSpace=wrap;html=1;labelBackgroundColor=#FF6666;imageAspect=0;fillColor=#D5E8D4;" vertex="1" parent="1">
          <mxGeometry x="460" y="170" width="223.5" height="20" as="geometry" />
        </mxCell>
        <mxCell id="ZqBJkxx_JJjRxXynTyVu-25" value="" style="whiteSpace=wrap;html=1;aspect=fixed;labelBackgroundColor=#FF6666;fillColor=#660000;" vertex="1" parent="1">
          <mxGeometry x="440" y="170" width="20" height="20" as="geometry" />
        </mxCell>
        <mxCell id="ZqBJkxx_JJjRxXynTyVu-30" value="Time Flow: Main TImeline" style="text;html=1;strokeColor=none;fillColor=none;align=center;verticalAlign=middle;whiteSpace=wrap;rounded=0;labelBackgroundColor=none;" vertex="1" parent="1">
          <mxGeometry x="415" y="100" width="170" height="20" as="geometry" />
        </mxCell>
        <mxCell id="ZqBJkxx_JJjRxXynTyVu-105" value="" style="endArrow=none;html=1;entryX=0.025;entryY=1.003;entryDx=0;entryDy=0;entryPerimeter=0;" edge="1" parent="1" target="ZqBJkxx_JJjRxXynTyVu-28">
          <mxGeometry width="50" height="50" relative="1" as="geometry">
            <mxPoint x="61" y="340" as="sourcePoint" />
            <mxPoint x="61.5" y="260" as="targetPoint" />
          </mxGeometry>
        </mxCell>
        <mxCell id="ZqBJkxx_JJjRxXynTyVu-106" value="" style="endArrow=none;html=1;entryX=0.025;entryY=1.018;entryDx=0;entryDy=0;entryPerimeter=0;" edge="1" parent="1">
          <mxGeometry width="50" height="50" relative="1" as="geometry">
            <mxPoint x="75" y="340" as="sourcePoint" />
            <mxPoint x="74.50000000000018" y="210.00000000000003" as="targetPoint" />
          </mxGeometry>
        </mxCell>
        <mxCell id="ZqBJkxx_JJjRxXynTyVu-43" value="" style="shape=component;jettyWidth=8;jettyHeight=4;" vertex="1" parent="1">
          <mxGeometry x="1" width="20" height="20" relative="1" as="geometry">
            <mxPoint x="-27" y="7" as="offset" />
          </mxGeometry>
        </mxCell>
        <mxCell id="ZqBJkxx_JJjRxXynTyVu-41" value="" style="shape=component;jettyWidth=8;jettyHeight=4;" vertex="1" parent="1">
          <mxGeometry x="1" width="20" height="20" relative="1" as="geometry">
            <mxPoint x="-27" y="7" as="offset" />
          </mxGeometry>
        </mxCell>
        <mxCell id="ZqBJkxx_JJjRxXynTyVu-39" value="" style="shape=component;jettyWidth=8;jettyHeight=4;" vertex="1" parent="1">
          <mxGeometry x="1" width="20" height="20" relative="1" as="geometry">
            <mxPoint x="-27" y="7" as="offset" />
          </mxGeometry>
        </mxCell>
        <mxCell id="ZqBJkxx_JJjRxXynTyVu-162" value="Play(Time)" style="rounded=1;whiteSpace=wrap;html=1;labelBackgroundColor=none;strokeColor=none;fillColor=none;" vertex="1" parent="1">
          <mxGeometry x="460" y="230" width="178.5" height="40" as="geometry" />
        </mxCell>
        <mxCell id="ZqBJkxx_JJjRxXynTyVu-168" value="" style="group" vertex="1" connectable="0" parent="1">
          <mxGeometry x="-1370" y="450" width="2140" height="1414" as="geometry" />
        </mxCell>
        <mxCell id="ZqBJkxx_JJjRxXynTyVu-167" value="" style="group" vertex="1" connectable="0" parent="ZqBJkxx_JJjRxXynTyVu-168">
          <mxGeometry y="50" width="2140" height="1364" as="geometry" />
        </mxCell>
        <mxCell id="ZqBJkxx_JJjRxXynTyVu-164" value="" style="group" vertex="1" connectable="0" parent="ZqBJkxx_JJjRxXynTyVu-167">
          <mxGeometry y="74" width="2140" height="1290" as="geometry" />
        </mxCell>
        <mxCell id="ZqBJkxx_JJjRxXynTyVu-139" value="" style="rounded=0;whiteSpace=wrap;html=1;labelBackgroundColor=none;fillColor=#ffffff;" vertex="1" parent="ZqBJkxx_JJjRxXynTyVu-164">
          <mxGeometry x="1120" y="30" width="1020" height="760" as="geometry" />
        </mxCell>
        <mxCell id="ZqBJkxx_JJjRxXynTyVu-109" value="" style="rounded=0;whiteSpace=wrap;html=1;labelBackgroundColor=none;fillColor=#ffffff;" vertex="1" parent="ZqBJkxx_JJjRxXynTyVu-164">
          <mxGeometry y="30" width="1020" height="990" as="geometry" />
        </mxCell>
        <mxCell id="ZqBJkxx_JJjRxXynTyVu-49" value="" style="whiteSpace=wrap;html=1;labelBackgroundColor=none;fillColor=#ffffff;" vertex="1" parent="ZqBJkxx_JJjRxXynTyVu-164">
          <mxGeometry x="560" y="200" width="220" height="180" as="geometry" />
        </mxCell>
        <mxCell id="ZqBJkxx_JJjRxXynTyVu-50" value="StateControllerView" style="html=1;dropTarget=0;labelBackgroundColor=none;fillColor=#ffffff;" vertex="1" parent="ZqBJkxx_JJjRxXynTyVu-164">
          <mxGeometry x="560" y="260" width="220" height="40" as="geometry" />
        </mxCell>
        <mxCell id="ZqBJkxx_JJjRxXynTyVu-51" value="" style="shape=component;jettyWidth=8;jettyHeight=4;" vertex="1" parent="ZqBJkxx_JJjRxXynTyVu-50">
          <mxGeometry x="1" width="20" height="20" relative="1" as="geometry">
            <mxPoint x="-27" y="7" as="offset" />
          </mxGeometry>
        </mxCell>
        <mxCell id="ZqBJkxx_JJjRxXynTyVu-52" value="Animator" style="html=1;dropTarget=0;labelBackgroundColor=none;fillColor=#ffffff;" vertex="1" parent="ZqBJkxx_JJjRxXynTyVu-164">
          <mxGeometry x="560" y="220" width="220" height="40" as="geometry" />
        </mxCell>
        <mxCell id="ZqBJkxx_JJjRxXynTyVu-53" value="" style="shape=component;jettyWidth=8;jettyHeight=4;" vertex="1" parent="ZqBJkxx_JJjRxXynTyVu-52">
          <mxGeometry x="1" width="20" height="20" relative="1" as="geometry">
            <mxPoint x="-27" y="7" as="offset" />
          </mxGeometry>
        </mxCell>
        <mxCell id="ZqBJkxx_JJjRxXynTyVu-85" style="edgeStyle=orthogonalEdgeStyle;rounded=0;orthogonalLoop=1;jettySize=auto;html=1;exitX=0;exitY=0.5;exitDx=0;exitDy=0;entryX=0;entryY=0.25;entryDx=0;entryDy=0;" edge="1" parent="ZqBJkxx_JJjRxXynTyVu-164" source="ZqBJkxx_JJjRxXynTyVu-50" target="ZqBJkxx_JJjRxXynTyVu-52">
          <mxGeometry relative="1" as="geometry">
            <mxPoint x="510" y="230" as="targetPoint" />
            <Array as="points">
              <mxPoint x="240" y="280" />
              <mxPoint x="240" y="230" />
            </Array>
          </mxGeometry>
        </mxCell>
        <mxCell id="ZqBJkxx_JJjRxXynTyVu-54" value="StateEnterActions" style="html=1;dropTarget=0;labelBackgroundColor=none;fillColor=#ffffff;" vertex="1" parent="ZqBJkxx_JJjRxXynTyVu-164">
          <mxGeometry x="560" y="420" width="220" height="40" as="geometry" />
        </mxCell>
        <mxCell id="ZqBJkxx_JJjRxXynTyVu-55" value="" style="shape=component;jettyWidth=8;jettyHeight=4;" vertex="1" parent="ZqBJkxx_JJjRxXynTyVu-54">
          <mxGeometry x="1" width="20" height="20" relative="1" as="geometry">
            <mxPoint x="-27" y="7" as="offset" />
          </mxGeometry>
        </mxCell>
        <mxCell id="ZqBJkxx_JJjRxXynTyVu-56" value="&lt;div&gt;SwitchSubchapters&lt;/div&gt;" style="html=1;dropTarget=0;labelBackgroundColor=none;fillColor=#ffffff;" vertex="1" parent="ZqBJkxx_JJjRxXynTyVu-164">
          <mxGeometry x="560" y="500" width="220" height="40" as="geometry" />
        </mxCell>
        <mxCell id="ZqBJkxx_JJjRxXynTyVu-57" value="" style="shape=component;jettyWidth=8;jettyHeight=4;" vertex="1" parent="ZqBJkxx_JJjRxXynTyVu-56">
          <mxGeometry x="1" width="20" height="20" relative="1" as="geometry">
            <mxPoint x="-27" y="7" as="offset" />
          </mxGeometry>
        </mxCell>
        <mxCell id="ZqBJkxx_JJjRxXynTyVu-133" style="edgeStyle=orthogonalEdgeStyle;rounded=0;orthogonalLoop=1;jettySize=auto;html=1;exitX=0;exitY=0.5;exitDx=0;exitDy=0;entryX=0;entryY=0.75;entryDx=0;entryDy=0;fontSize=21;" edge="1" parent="ZqBJkxx_JJjRxXynTyVu-164" source="ZqBJkxx_JJjRxXynTyVu-54" target="ZqBJkxx_JJjRxXynTyVu-56">
          <mxGeometry relative="1" as="geometry" />
        </mxCell>
        <mxCell id="ZqBJkxx_JJjRxXynTyVu-83" style="edgeStyle=orthogonalEdgeStyle;rounded=0;orthogonalLoop=1;jettySize=auto;html=1;exitX=1;exitY=0.5;exitDx=0;exitDy=0;entryX=1;entryY=0.5;entryDx=0;entryDy=0;" edge="1" parent="ZqBJkxx_JJjRxXynTyVu-164" source="ZqBJkxx_JJjRxXynTyVu-58" target="ZqBJkxx_JJjRxXynTyVu-50">
          <mxGeometry relative="1" as="geometry">
            <mxPoint x="840" y="280" as="targetPoint" />
            <Array as="points">
              <mxPoint x="840" y="400" />
              <mxPoint x="840" y="280" />
            </Array>
          </mxGeometry>
        </mxCell>
        <mxCell id="ZqBJkxx_JJjRxXynTyVu-58" value="&lt;div&gt;TimelineSignalListener&lt;/div&gt;" style="html=1;dropTarget=0;labelBackgroundColor=none;fillColor=#ffffff;" vertex="1" parent="ZqBJkxx_JJjRxXynTyVu-164">
          <mxGeometry x="560" y="380" width="220" height="40" as="geometry" />
        </mxCell>
        <mxCell id="ZqBJkxx_JJjRxXynTyVu-59" value="" style="shape=component;jettyWidth=8;jettyHeight=4;" vertex="1" parent="ZqBJkxx_JJjRxXynTyVu-58">
          <mxGeometry x="1" width="20" height="20" relative="1" as="geometry">
            <mxPoint x="-27" y="7" as="offset" />
          </mxGeometry>
        </mxCell>
        <mxCell id="ZqBJkxx_JJjRxXynTyVu-134" style="edgeStyle=orthogonalEdgeStyle;rounded=0;orthogonalLoop=1;jettySize=auto;html=1;exitX=0;exitY=0.5;exitDx=0;exitDy=0;entryX=0;entryY=0.5;entryDx=0;entryDy=0;fontSize=21;" edge="1" parent="ZqBJkxx_JJjRxXynTyVu-164" source="ZqBJkxx_JJjRxXynTyVu-62" target="ZqBJkxx_JJjRxXynTyVu-56">
          <mxGeometry relative="1" as="geometry">
            <Array as="points">
              <mxPoint x="500" y="480" />
              <mxPoint x="500" y="520" />
            </Array>
          </mxGeometry>
        </mxCell>
        <mxCell id="ZqBJkxx_JJjRxXynTyVu-62" value="StateExitActions" style="html=1;dropTarget=0;labelBackgroundColor=none;fillColor=#ffffff;" vertex="1" parent="ZqBJkxx_JJjRxXynTyVu-164">
          <mxGeometry x="560" y="460" width="220" height="40" as="geometry" />
        </mxCell>
        <mxCell id="ZqBJkxx_JJjRxXynTyVu-63" value="" style="shape=component;jettyWidth=8;jettyHeight=4;" vertex="1" parent="ZqBJkxx_JJjRxXynTyVu-62">
          <mxGeometry x="1" width="20" height="20" relative="1" as="geometry">
            <mxPoint x="-27" y="7" as="offset" />
          </mxGeometry>
        </mxCell>
        <mxCell id="ZqBJkxx_JJjRxXynTyVu-132" style="edgeStyle=orthogonalEdgeStyle;rounded=0;orthogonalLoop=1;jettySize=auto;html=1;exitX=1;exitY=0.5;exitDx=0;exitDy=0;entryX=1;entryY=0.5;entryDx=0;entryDy=0;fontSize=21;" edge="1" parent="ZqBJkxx_JJjRxXynTyVu-164" source="ZqBJkxx_JJjRxXynTyVu-64" target="ZqBJkxx_JJjRxXynTyVu-54">
          <mxGeometry relative="1" as="geometry">
            <Array as="points">
              <mxPoint x="810" y="320" />
              <mxPoint x="810" y="440" />
            </Array>
          </mxGeometry>
        </mxCell>
        <mxCell id="ZqBJkxx_JJjRxXynTyVu-64" value="BehaviourListener &quot;Enter&quot;" style="html=1;dropTarget=0;labelBackgroundColor=none;fillColor=#ffffff;" vertex="1" parent="ZqBJkxx_JJjRxXynTyVu-164">
          <mxGeometry x="560" y="300" width="220" height="40" as="geometry" />
        </mxCell>
        <mxCell id="ZqBJkxx_JJjRxXynTyVu-65" value="" style="shape=component;jettyWidth=8;jettyHeight=4;" vertex="1" parent="ZqBJkxx_JJjRxXynTyVu-64">
          <mxGeometry x="1" width="20" height="20" relative="1" as="geometry">
            <mxPoint x="-27" y="7" as="offset" />
          </mxGeometry>
        </mxCell>
        <mxCell id="ZqBJkxx_JJjRxXynTyVu-131" style="edgeStyle=orthogonalEdgeStyle;rounded=0;orthogonalLoop=1;jettySize=auto;html=1;exitX=1;exitY=0.5;exitDx=0;exitDy=0;entryX=1;entryY=0.5;entryDx=0;entryDy=0;fontSize=21;" edge="1" parent="ZqBJkxx_JJjRxXynTyVu-164" source="ZqBJkxx_JJjRxXynTyVu-66" target="ZqBJkxx_JJjRxXynTyVu-62">
          <mxGeometry relative="1" as="geometry" />
        </mxCell>
        <mxCell id="ZqBJkxx_JJjRxXynTyVu-66" value="BehaviourListener &quot;Exit&quot;" style="html=1;dropTarget=0;labelBackgroundColor=none;fillColor=#ffffff;" vertex="1" parent="ZqBJkxx_JJjRxXynTyVu-164">
          <mxGeometry x="560" y="340" width="220" height="40" as="geometry" />
        </mxCell>
        <mxCell id="ZqBJkxx_JJjRxXynTyVu-67" value="" style="shape=component;jettyWidth=8;jettyHeight=4;" vertex="1" parent="ZqBJkxx_JJjRxXynTyVu-66">
          <mxGeometry x="1" width="20" height="20" relative="1" as="geometry">
            <mxPoint x="-27" y="7" as="offset" />
          </mxGeometry>
        </mxCell>
        <mxCell id="ZqBJkxx_JJjRxXynTyVu-69" value="Main Animator State Machine GameObject" style="text;html=1;strokeColor=none;fillColor=none;align=center;verticalAlign=middle;whiteSpace=wrap;rounded=0;labelBackgroundColor=none;" vertex="1" parent="ZqBJkxx_JJjRxXynTyVu-164">
          <mxGeometry x="560" y="160" width="215" height="50" as="geometry" />
        </mxCell>
        <mxCell id="ZqBJkxx_JJjRxXynTyVu-84" value="TryCHangeState(State)" style="rounded=1;whiteSpace=wrap;html=1;labelBackgroundColor=none;strokeColor=none;" vertex="1" parent="ZqBJkxx_JJjRxXynTyVu-164">
          <mxGeometry x="840" y="300" width="131.5" height="60" as="geometry" />
        </mxCell>
        <mxCell id="ZqBJkxx_JJjRxXynTyVu-86" value="SetParameters()" style="rounded=1;whiteSpace=wrap;html=1;labelBackgroundColor=none;strokeColor=none;" vertex="1" parent="ZqBJkxx_JJjRxXynTyVu-164">
          <mxGeometry x="254.09" y="190" width="140" height="60" as="geometry" />
        </mxCell>
        <mxCell id="ZqBJkxx_JJjRxXynTyVu-89" value="" style="rounded=0;whiteSpace=wrap;html=1;fillColor=none;" vertex="1" parent="ZqBJkxx_JJjRxXynTyVu-164">
          <mxGeometry x="660" y="680" width="300" height="220" as="geometry" />
        </mxCell>
        <mxCell id="ZqBJkxx_JJjRxXynTyVu-90" value="Main &lt;br&gt;&lt;div&gt;Animator&lt;/div&gt;" style="text;html=1;strokeColor=none;fillColor=none;align=center;verticalAlign=middle;whiteSpace=wrap;rounded=0;labelBackgroundColor=none;" vertex="1" parent="ZqBJkxx_JJjRxXynTyVu-164">
          <mxGeometry x="745" y="630" width="130" height="50" as="geometry" />
        </mxCell>
        <mxCell id="ZqBJkxx_JJjRxXynTyVu-91" value="Trigger1" style="html=1;dropTarget=0;labelBackgroundColor=none;fillColor=#ffffff;" vertex="1" parent="ZqBJkxx_JJjRxXynTyVu-164">
          <mxGeometry x="679.5" y="710" width="80" height="40" as="geometry" />
        </mxCell>
        <mxCell id="ZqBJkxx_JJjRxXynTyVu-88" style="edgeStyle=orthogonalEdgeStyle;rounded=0;orthogonalLoop=1;jettySize=auto;html=1;exitX=1;exitY=0.5;exitDx=0;exitDy=0;" edge="1" parent="ZqBJkxx_JJjRxXynTyVu-164" source="ZqBJkxx_JJjRxXynTyVu-52" target="ZqBJkxx_JJjRxXynTyVu-89">
          <mxGeometry relative="1" as="geometry">
            <mxPoint x="860" y="700" as="targetPoint" />
            <Array as="points">
              <mxPoint x="1010" y="240" />
              <mxPoint x="1010" y="765" />
            </Array>
          </mxGeometry>
        </mxCell>
        <mxCell id="ZqBJkxx_JJjRxXynTyVu-101" style="edgeStyle=orthogonalEdgeStyle;rounded=0;orthogonalLoop=1;jettySize=auto;html=1;exitX=0.5;exitY=1;exitDx=0;exitDy=0;" edge="1" parent="ZqBJkxx_JJjRxXynTyVu-164" source="ZqBJkxx_JJjRxXynTyVu-89" target="ZqBJkxx_JJjRxXynTyVu-89">
          <mxGeometry relative="1" as="geometry" />
        </mxCell>
        <mxCell id="ZqBJkxx_JJjRxXynTyVu-112" value="&lt;div&gt;End Frame&lt;/div&gt;" style="text;html=1;strokeColor=none;fillColor=none;align=center;verticalAlign=middle;whiteSpace=wrap;rounded=0;labelBackgroundColor=none;fontSize=21;" vertex="1" parent="ZqBJkxx_JJjRxXynTyVu-164">
          <mxGeometry x="1630" y="40" width="116.5" height="20" as="geometry" />
        </mxCell>
        <mxCell id="ZqBJkxx_JJjRxXynTyVu-102" value="Transition" style="text;html=1;strokeColor=none;fillColor=none;align=center;verticalAlign=middle;whiteSpace=wrap;rounded=0;labelBackgroundColor=none;" vertex="1" parent="ZqBJkxx_JJjRxXynTyVu-164">
          <mxGeometry x="880" y="790" width="50" height="20" as="geometry" />
        </mxCell>
        <mxCell id="ZqBJkxx_JJjRxXynTyVu-125" value="" style="group" vertex="1" connectable="0" parent="ZqBJkxx_JJjRxXynTyVu-164">
          <mxGeometry x="679.5" y="750" width="80.5" height="80" as="geometry" />
        </mxCell>
        <mxCell id="ZqBJkxx_JJjRxXynTyVu-95" value="&lt;div&gt;Trigger2&lt;/div&gt;" style="html=1;dropTarget=0;labelBackgroundColor=none;fillColor=#ffffff;" vertex="1" parent="ZqBJkxx_JJjRxXynTyVu-125">
          <mxGeometry y="40" width="80" height="40" as="geometry" />
        </mxCell>
        <mxCell id="ZqBJkxx_JJjRxXynTyVu-124" value="" style="group" vertex="1" connectable="0" parent="ZqBJkxx_JJjRxXynTyVu-125">
          <mxGeometry x="0.5" width="80" height="40" as="geometry" />
        </mxCell>
        <mxCell id="ZqBJkxx_JJjRxXynTyVu-93" value="Bool" style="html=1;dropTarget=0;labelBackgroundColor=none;fillColor=#ffffff;" vertex="1" parent="ZqBJkxx_JJjRxXynTyVu-124">
          <mxGeometry width="80" height="40" as="geometry" />
        </mxCell>
        <mxCell id="ZqBJkxx_JJjRxXynTyVu-94" value="" style="shape=component;jettyWidth=8;jettyHeight=4;" vertex="1" parent="ZqBJkxx_JJjRxXynTyVu-93">
          <mxGeometry x="1" width="20" height="20" relative="1" as="geometry">
            <mxPoint x="-80" y="-60" as="offset" />
          </mxGeometry>
        </mxCell>
        <mxCell id="ZqBJkxx_JJjRxXynTyVu-115" value="CurrentState" style="shape=component;jettyWidth=8;jettyHeight=4;" vertex="1" parent="ZqBJkxx_JJjRxXynTyVu-93">
          <mxGeometry x="1" width="99" height="30" relative="1" as="geometry">
            <mxPoint x="50.5" y="-30" as="offset" />
          </mxGeometry>
        </mxCell>
        <mxCell id="ZqBJkxx_JJjRxXynTyVu-116" value="NextState" style="shape=component;jettyWidth=8;jettyHeight=4;" vertex="1" parent="ZqBJkxx_JJjRxXynTyVu-93">
          <mxGeometry x="1" width="99" height="30" relative="1" as="geometry">
            <mxPoint x="50.5" y="90" as="offset" />
          </mxGeometry>
        </mxCell>
        <mxCell id="ZqBJkxx_JJjRxXynTyVu-99" value="" style="endArrow=classic;html=1;exitX=0.5;exitY=1;exitDx=0;exitDy=0;entryX=0.5;entryY=0;entryDx=0;entryDy=0;" edge="1" parent="ZqBJkxx_JJjRxXynTyVu-93" source="ZqBJkxx_JJjRxXynTyVu-115" target="ZqBJkxx_JJjRxXynTyVu-116">
          <mxGeometry relative="1" as="geometry">
            <mxPoint x="156" y="40" as="sourcePoint" />
            <mxPoint x="234" y="70" as="targetPoint" />
          </mxGeometry>
        </mxCell>
        <mxCell id="ZqBJkxx_JJjRxXynTyVu-100" value="" style="shape=cloud;html=1;outlineConnect=0;" vertex="1" parent="ZqBJkxx_JJjRxXynTyVu-99">
          <mxGeometry width="30" height="20" relative="1" as="geometry">
            <mxPoint x="-15" y="-10" as="offset" />
          </mxGeometry>
        </mxCell>
        <mxCell id="ZqBJkxx_JJjRxXynTyVu-128" style="orthogonalLoop=1;jettySize=auto;html=1;curved=1;sourcePerimeterSpacing=5;targetPerimeterSpacing=5;entryX=0;entryY=0.5;entryDx=0;entryDy=0;" edge="1" parent="ZqBJkxx_JJjRxXynTyVu-164" target="ZqBJkxx_JJjRxXynTyVu-66">
          <mxGeometry relative="1" as="geometry">
            <mxPoint x="880" y="718" as="sourcePoint" />
            <mxPoint x="880" y="652.5" as="targetPoint" />
            <Array as="points">
              <mxPoint x="880" y="717.5" />
              <mxPoint x="890" y="570" />
              <mxPoint x="270" y="620" />
            </Array>
          </mxGeometry>
        </mxCell>
        <mxCell id="ZqBJkxx_JJjRxXynTyVu-129" value="Exit(State)" style="text;html=1;strokeColor=none;fillColor=none;align=center;verticalAlign=middle;whiteSpace=wrap;rounded=0;labelBackgroundColor=none;" vertex="1" parent="ZqBJkxx_JJjRxXynTyVu-164">
          <mxGeometry x="308.18" y="520" width="130" height="50" as="geometry" />
        </mxCell>
        <mxCell id="ZqBJkxx_JJjRxXynTyVu-135" value="Disable(Step)" style="text;html=1;strokeColor=none;fillColor=none;align=center;verticalAlign=middle;whiteSpace=wrap;rounded=0;labelBackgroundColor=none;" vertex="1" parent="ZqBJkxx_JJjRxXynTyVu-164">
          <mxGeometry x="410" y="480" width="130" height="50" as="geometry" />
        </mxCell>
        <mxCell id="ZqBJkxx_JJjRxXynTyVu-136" value="Enable(Step)" style="text;html=1;strokeColor=none;fillColor=none;align=center;verticalAlign=middle;whiteSpace=wrap;rounded=0;labelBackgroundColor=none;" vertex="1" parent="ZqBJkxx_JJjRxXynTyVu-164">
          <mxGeometry x="450" y="430" width="130" height="50" as="geometry" />
        </mxCell>
        <mxCell id="ZqBJkxx_JJjRxXynTyVu-137" style="orthogonalLoop=1;jettySize=auto;html=1;curved=1;sourcePerimeterSpacing=5;targetPerimeterSpacing=5;entryX=0;entryY=0.5;entryDx=0;entryDy=0;exitX=0.5;exitY=1;exitDx=0;exitDy=0;" edge="1" parent="ZqBJkxx_JJjRxXynTyVu-164" source="ZqBJkxx_JJjRxXynTyVu-116" target="ZqBJkxx_JJjRxXynTyVu-64">
          <mxGeometry relative="1" as="geometry">
            <mxPoint x="640" y="948" as="sourcePoint" />
            <mxPoint x="320" y="590" as="targetPoint" />
            <Array as="points">
              <mxPoint x="900" y="970" />
              <mxPoint x="530" y="930" />
              <mxPoint x="30" y="850" />
              <mxPoint x="150" y="520" />
              <mxPoint x="260" y="360" />
            </Array>
          </mxGeometry>
        </mxCell>
        <mxCell id="ZqBJkxx_JJjRxXynTyVu-138" value="Enter(State)" style="text;html=1;strokeColor=none;fillColor=none;align=center;verticalAlign=middle;whiteSpace=wrap;rounded=0;labelBackgroundColor=none;" vertex="1" parent="ZqBJkxx_JJjRxXynTyVu-164">
          <mxGeometry x="40" y="780" width="130" height="50" as="geometry" />
        </mxCell>
        <mxCell id="ZqBJkxx_JJjRxXynTyVu-140" value="Start Frame" style="text;html=1;strokeColor=none;fillColor=none;align=center;verticalAlign=middle;whiteSpace=wrap;rounded=0;labelBackgroundColor=none;fontSize=21;" vertex="1" parent="ZqBJkxx_JJjRxXynTyVu-164">
          <mxGeometry x="478.25" y="40" width="116.5" height="20" as="geometry" />
        </mxCell>
        <mxCell id="ZqBJkxx_JJjRxXynTyVu-32" value="" style="whiteSpace=wrap;html=1;labelBackgroundColor=none;fillColor=#ffffff;" vertex="1" parent="ZqBJkxx_JJjRxXynTyVu-164">
          <mxGeometry x="1300" y="340" width="220" height="180" as="geometry" />
        </mxCell>
        <mxCell id="ZqBJkxx_JJjRxXynTyVu-184" style="edgeStyle=orthogonalEdgeStyle;rounded=0;orthogonalLoop=1;jettySize=auto;html=1;exitX=1;exitY=0.5;exitDx=0;exitDy=0;entryX=0.538;entryY=0.82;entryDx=0;entryDy=0;entryPerimeter=0;fontSize=21;" edge="1" parent="ZqBJkxx_JJjRxXynTyVu-164" source="ZqBJkxx_JJjRxXynTyVu-36" target="ZqBJkxx_JJjRxXynTyVu-180">
          <mxGeometry relative="1" as="geometry" />
        </mxCell>
        <mxCell id="ZqBJkxx_JJjRxXynTyVu-36" value="Animator" style="html=1;dropTarget=0;labelBackgroundColor=none;fillColor=#ffffff;" vertex="1" parent="ZqBJkxx_JJjRxXynTyVu-164">
          <mxGeometry x="1300" y="360" width="220" height="40" as="geometry" />
        </mxCell>
        <mxCell id="ZqBJkxx_JJjRxXynTyVu-37" value="" style="shape=component;jettyWidth=8;jettyHeight=4;" vertex="1" parent="ZqBJkxx_JJjRxXynTyVu-36">
          <mxGeometry x="1" width="20" height="20" relative="1" as="geometry">
            <mxPoint x="-27" y="7" as="offset" />
          </mxGeometry>
        </mxCell>
        <mxCell id="ZqBJkxx_JJjRxXynTyVu-38" value="StateEnterActions" style="html=1;dropTarget=0;labelBackgroundColor=none;fillColor=#ffffff;container=0;" vertex="1" parent="ZqBJkxx_JJjRxXynTyVu-164">
          <mxGeometry x="1300" y="480" width="220" height="40" as="geometry" />
        </mxCell>
        <mxCell id="ZqBJkxx_JJjRxXynTyVu-40" value="ChangedSubchapter" style="html=1;dropTarget=0;labelBackgroundColor=none;fillColor=#ffffff;container=0;" vertex="1" parent="ZqBJkxx_JJjRxXynTyVu-164">
          <mxGeometry x="1300" y="560" width="220" height="40" as="geometry" />
        </mxCell>
        <mxCell id="ZqBJkxx_JJjRxXynTyVu-42" value="&lt;div&gt;TimelineSignalListener&lt;/div&gt;" style="html=1;dropTarget=0;labelBackgroundColor=none;fillColor=#ffffff;container=0;" vertex="1" parent="ZqBJkxx_JJjRxXynTyVu-164">
          <mxGeometry x="1300" y="520" width="220" height="40" as="geometry" />
        </mxCell>
        <mxCell id="ZqBJkxx_JJjRxXynTyVu-33" value="Chapter/Step GameObject" style="text;html=1;strokeColor=none;fillColor=none;align=center;verticalAlign=middle;whiteSpace=wrap;rounded=0;labelBackgroundColor=none;" vertex="1" parent="ZqBJkxx_JJjRxXynTyVu-164">
          <mxGeometry x="1330" y="320" width="160" height="20" as="geometry" />
        </mxCell>
        <mxCell id="ZqBJkxx_JJjRxXynTyVu-155" style="edgeStyle=orthogonalEdgeStyle;rounded=0;orthogonalLoop=1;jettySize=auto;html=1;exitX=0;exitY=0.75;exitDx=0;exitDy=0;entryX=0;entryY=0.5;entryDx=0;entryDy=0;fontSize=21;" edge="1" parent="ZqBJkxx_JJjRxXynTyVu-164" source="ZqBJkxx_JJjRxXynTyVu-34" target="ZqBJkxx_JJjRxXynTyVu-36">
          <mxGeometry relative="1" as="geometry">
            <Array as="points">
              <mxPoint x="1220" y="430" />
              <mxPoint x="1220" y="380" />
            </Array>
          </mxGeometry>
        </mxCell>
        <mxCell id="ZqBJkxx_JJjRxXynTyVu-34" value="StateControllerView" style="html=1;dropTarget=0;labelBackgroundColor=none;fillColor=#ffffff;" vertex="1" parent="ZqBJkxx_JJjRxXynTyVu-164">
          <mxGeometry x="1300" y="400" width="220" height="40" as="geometry" />
        </mxCell>
        <mxCell id="ZqBJkxx_JJjRxXynTyVu-35" value="" style="shape=component;jettyWidth=8;jettyHeight=4;" vertex="1" parent="ZqBJkxx_JJjRxXynTyVu-34">
          <mxGeometry x="1" width="20" height="20" relative="1" as="geometry">
            <mxPoint x="-27" y="7" as="offset" />
          </mxGeometry>
        </mxCell>
        <mxCell id="ZqBJkxx_JJjRxXynTyVu-152" style="edgeStyle=orthogonalEdgeStyle;rounded=0;orthogonalLoop=1;jettySize=auto;html=1;exitX=1;exitY=0.5;exitDx=0;exitDy=0;entryX=1;entryY=0.5;entryDx=0;entryDy=0;fontSize=21;" edge="1" parent="ZqBJkxx_JJjRxXynTyVu-164" source="ZqBJkxx_JJjRxXynTyVu-42" target="ZqBJkxx_JJjRxXynTyVu-34">
          <mxGeometry relative="1" as="geometry">
            <Array as="points">
              <mxPoint x="1630" y="540" />
              <mxPoint x="1630" y="420" />
            </Array>
          </mxGeometry>
        </mxCell>
        <mxCell id="ZqBJkxx_JJjRxXynTyVu-154" style="edgeStyle=orthogonalEdgeStyle;rounded=0;orthogonalLoop=1;jettySize=auto;html=1;exitX=1;exitY=0.5;exitDx=0;exitDy=0;entryX=1;entryY=0.5;entryDx=0;entryDy=0;fontSize=21;" edge="1" parent="ZqBJkxx_JJjRxXynTyVu-164" source="ZqBJkxx_JJjRxXynTyVu-143" target="ZqBJkxx_JJjRxXynTyVu-38">
          <mxGeometry relative="1" as="geometry" />
        </mxCell>
        <mxCell id="ZqBJkxx_JJjRxXynTyVu-143" value="BehaviourListener &quot;Enter&quot;" style="html=1;dropTarget=0;labelBackgroundColor=none;fillColor=#ffffff;" vertex="1" parent="ZqBJkxx_JJjRxXynTyVu-164">
          <mxGeometry x="1300" y="440" width="220" height="40" as="geometry" />
        </mxCell>
        <mxCell id="ZqBJkxx_JJjRxXynTyVu-144" value="" style="shape=component;jettyWidth=8;jettyHeight=4;" vertex="1" parent="ZqBJkxx_JJjRxXynTyVu-143">
          <mxGeometry x="1" width="20" height="20" relative="1" as="geometry">
            <mxPoint x="-27" y="7" as="offset" />
          </mxGeometry>
        </mxCell>
        <mxCell id="ZqBJkxx_JJjRxXynTyVu-145" value="" style="shape=component;jettyWidth=8;jettyHeight=4;" vertex="1" parent="ZqBJkxx_JJjRxXynTyVu-143">
          <mxGeometry x="1" width="20" height="20" relative="1" as="geometry">
            <mxPoint x="-30" y="50" as="offset" />
          </mxGeometry>
        </mxCell>
        <mxCell id="ZqBJkxx_JJjRxXynTyVu-146" value="" style="shape=component;jettyWidth=8;jettyHeight=4;" vertex="1" parent="ZqBJkxx_JJjRxXynTyVu-143">
          <mxGeometry x="1" width="20" height="20" relative="1" as="geometry">
            <mxPoint x="-30" y="87" as="offset" />
          </mxGeometry>
        </mxCell>
        <mxCell id="ZqBJkxx_JJjRxXynTyVu-147" value="" style="shape=component;jettyWidth=8;jettyHeight=4;" vertex="1" parent="ZqBJkxx_JJjRxXynTyVu-143">
          <mxGeometry x="1" width="20" height="20" relative="1" as="geometry">
            <mxPoint x="-30" y="130" as="offset" />
          </mxGeometry>
        </mxCell>
        <mxCell id="ZqBJkxx_JJjRxXynTyVu-142" style="orthogonalLoop=1;jettySize=auto;html=1;curved=1;sourcePerimeterSpacing=5;targetPerimeterSpacing=5;entryX=0;entryY=0.75;entryDx=0;entryDy=0;exitX=1;exitY=0.5;exitDx=0;exitDy=0;" edge="1" parent="ZqBJkxx_JJjRxXynTyVu-164" source="ZqBJkxx_JJjRxXynTyVu-148" target="ZqBJkxx_JJjRxXynTyVu-40">
          <mxGeometry relative="1" as="geometry">
            <mxPoint x="1600" y="-45" as="sourcePoint" />
            <mxPoint x="1610" y="355" as="targetPoint" />
            <Array as="points" />
          </mxGeometry>
        </mxCell>
        <mxCell id="ZqBJkxx_JJjRxXynTyVu-149" style="orthogonalLoop=1;jettySize=auto;html=1;curved=1;sourcePerimeterSpacing=5;targetPerimeterSpacing=5;entryX=0;entryY=0.5;entryDx=0;entryDy=0;exitX=1;exitY=0.5;exitDx=0;exitDy=0;" edge="1" parent="ZqBJkxx_JJjRxXynTyVu-164" source="ZqBJkxx_JJjRxXynTyVu-56" target="ZqBJkxx_JJjRxXynTyVu-148">
          <mxGeometry relative="1" as="geometry">
            <mxPoint x="780" y="520" as="sourcePoint" />
            <mxPoint x="1300" y="590" as="targetPoint" />
            <Array as="points" />
          </mxGeometry>
        </mxCell>
        <mxCell id="ZqBJkxx_JJjRxXynTyVu-153" value="TryCHangeState(State)" style="rounded=1;whiteSpace=wrap;html=1;labelBackgroundColor=none;strokeColor=none;" vertex="1" parent="ZqBJkxx_JJjRxXynTyVu-164">
          <mxGeometry x="1630" y="450" width="131.5" height="60" as="geometry" />
        </mxCell>
        <mxCell id="ZqBJkxx_JJjRxXynTyVu-156" value="SetParameters()" style="rounded=1;whiteSpace=wrap;html=1;labelBackgroundColor=none;strokeColor=none;" vertex="1" parent="ZqBJkxx_JJjRxXynTyVu-164">
          <mxGeometry x="1160" y="320" width="140" height="60" as="geometry" />
        </mxCell>
        <mxCell id="ZqBJkxx_JJjRxXynTyVu-157" value="" style="group" vertex="1" connectable="0" parent="ZqBJkxx_JJjRxXynTyVu-164">
          <mxGeometry x="960" y="43" width="260" height="180" as="geometry" />
        </mxCell>
        <mxCell id="ZqBJkxx_JJjRxXynTyVu-70" value="" style="group" vertex="1" connectable="0" parent="ZqBJkxx_JJjRxXynTyVu-157">
          <mxGeometry width="260" height="80" as="geometry" />
        </mxCell>
        <mxCell id="ZqBJkxx_JJjRxXynTyVu-68" value="" style="rounded=0;whiteSpace=wrap;html=1;labelBackgroundColor=none;" vertex="1" parent="ZqBJkxx_JJjRxXynTyVu-70">
          <mxGeometry width="248.1818181818182" height="80" as="geometry" />
        </mxCell>
        <mxCell id="ZqBJkxx_JJjRxXynTyVu-60" value="&lt;div&gt;Main PlayableDirecetor/Timeline&lt;br&gt;&lt;/div&gt;" style="text;html=1;strokeColor=none;fillColor=none;align=center;verticalAlign=middle;whiteSpace=wrap;rounded=0;labelBackgroundColor=none;" vertex="1" parent="ZqBJkxx_JJjRxXynTyVu-70">
          <mxGeometry x="11.818181818181818" width="224.54545454545456" height="20" as="geometry" />
        </mxCell>
        <mxCell id="ZqBJkxx_JJjRxXynTyVu-72" value="&lt;div&gt;Playable Director (Main TImeline)&lt;br&gt;&lt;/div&gt;" style="html=1;dropTarget=0;labelBackgroundColor=none;fillColor=#ffffff;" vertex="1" parent="ZqBJkxx_JJjRxXynTyVu-70">
          <mxGeometry y="20" width="248.1818181818182" height="40" as="geometry" />
        </mxCell>
        <mxCell id="ZqBJkxx_JJjRxXynTyVu-73" value="" style="shape=component;jettyWidth=8;jettyHeight=4;" vertex="1" parent="ZqBJkxx_JJjRxXynTyVu-72">
          <mxGeometry x="1" width="20" height="20" relative="1" as="geometry">
            <mxPoint x="-27" y="7" as="offset" />
          </mxGeometry>
        </mxCell>
        <mxCell id="ZqBJkxx_JJjRxXynTyVu-160" style="edgeStyle=orthogonalEdgeStyle;rounded=0;orthogonalLoop=1;jettySize=auto;html=1;exitX=0;exitY=0.5;exitDx=0;exitDy=0;entryX=0;entryY=0.5;entryDx=0;entryDy=0;fontSize=21;" edge="1" parent="ZqBJkxx_JJjRxXynTyVu-157" source="ZqBJkxx_JJjRxXynTyVu-79" target="ZqBJkxx_JJjRxXynTyVu-72">
          <mxGeometry relative="1" as="geometry">
            <Array as="points">
              <mxPoint x="-40" y="80" />
              <mxPoint x="-40" y="40" />
            </Array>
          </mxGeometry>
        </mxCell>
        <mxCell id="ZqBJkxx_JJjRxXynTyVu-79" value="TimelineApiToPublic" style="html=1;dropTarget=0;labelBackgroundColor=none;fillColor=#ffffff;" vertex="1" parent="ZqBJkxx_JJjRxXynTyVu-157">
          <mxGeometry y="60" width="248.1818181818182" height="40" as="geometry" />
        </mxCell>
        <mxCell id="ZqBJkxx_JJjRxXynTyVu-80" value="" style="shape=component;jettyWidth=8;jettyHeight=4;" vertex="1" parent="ZqBJkxx_JJjRxXynTyVu-79">
          <mxGeometry x="1" width="20" height="20" relative="1" as="geometry">
            <mxPoint x="-27" y="7" as="offset" />
          </mxGeometry>
        </mxCell>
        <mxCell id="ZqBJkxx_JJjRxXynTyVu-82" value="List of all Main TImelines in sequence" style="shape=cube;whiteSpace=wrap;html=1;boundedLbl=1;backgroundOutline=1;darkOpacity=0.05;darkOpacity2=0.1;labelBackgroundColor=none;fillColor=#ffffff;" vertex="1" parent="ZqBJkxx_JJjRxXynTyVu-157">
          <mxGeometry x="64.09" y="100" width="120" height="80" as="geometry" />
        </mxCell>
        <mxCell id="ZqBJkxx_JJjRxXynTyVu-158" style="orthogonalLoop=1;jettySize=auto;html=1;curved=1;sourcePerimeterSpacing=5;targetPerimeterSpacing=5;exitX=1;exitY=0.75;exitDx=0;exitDy=0;entryX=1;entryY=0.5;entryDx=0;entryDy=0;" edge="1" parent="ZqBJkxx_JJjRxXynTyVu-164" source="ZqBJkxx_JJjRxXynTyVu-40" target="ZqBJkxx_JJjRxXynTyVu-79">
          <mxGeometry relative="1" as="geometry">
            <mxPoint x="1687.6599999999999" y="580" as="sourcePoint" />
            <mxPoint x="1687.6599999999999" y="540" as="targetPoint" />
            <Array as="points">
              <mxPoint x="1540" y="590" />
              <mxPoint x="1950" y="550" />
              <mxPoint x="2090" y="360" />
              <mxPoint x="1840" y="150" />
            </Array>
          </mxGeometry>
        </mxCell>
        <mxCell id="ZqBJkxx_JJjRxXynTyVu-159" value="&lt;span class=&quot;pl-en&quot;&gt;ContinueFromGivenTimeline (TImeline)&lt;br&gt;&lt;/span&gt;" style="rounded=1;whiteSpace=wrap;html=1;labelBackgroundColor=none;strokeColor=none;" vertex="1" parent="ZqBJkxx_JJjRxXynTyVu-164">
          <mxGeometry x="1980" y="210" width="131.5" height="60" as="geometry" />
        </mxCell>
        <mxCell id="ZqBJkxx_JJjRxXynTyVu-169" value="" style="rounded=0;whiteSpace=wrap;html=1;fillColor=none;" vertex="1" parent="ZqBJkxx_JJjRxXynTyVu-164">
          <mxGeometry x="1830" y="560" width="300" height="220" as="geometry" />
        </mxCell>
        <mxCell id="ZqBJkxx_JJjRxXynTyVu-170" value="Trigger1" style="html=1;dropTarget=0;labelBackgroundColor=none;fillColor=#ffffff;" vertex="1" parent="ZqBJkxx_JJjRxXynTyVu-164">
          <mxGeometry x="1849.5" y="590" width="80" height="40" as="geometry" />
        </mxCell>
        <mxCell id="ZqBJkxx_JJjRxXynTyVu-171" value="" style="group" vertex="1" connectable="0" parent="ZqBJkxx_JJjRxXynTyVu-164">
          <mxGeometry x="1849.5" y="630" width="80.5" height="80" as="geometry" />
        </mxCell>
        <mxCell id="ZqBJkxx_JJjRxXynTyVu-172" value="&lt;div&gt;Trigger2&lt;/div&gt;" style="html=1;dropTarget=0;labelBackgroundColor=none;fillColor=#ffffff;" vertex="1" parent="ZqBJkxx_JJjRxXynTyVu-171">
          <mxGeometry y="40" width="80" height="40" as="geometry" />
        </mxCell>
        <mxCell id="ZqBJkxx_JJjRxXynTyVu-173" value="" style="group" vertex="1" connectable="0" parent="ZqBJkxx_JJjRxXynTyVu-171">
          <mxGeometry x="0.5" width="80" height="40" as="geometry" />
        </mxCell>
        <mxCell id="ZqBJkxx_JJjRxXynTyVu-174" value="Bool" style="html=1;dropTarget=0;labelBackgroundColor=none;fillColor=#ffffff;" vertex="1" parent="ZqBJkxx_JJjRxXynTyVu-173">
          <mxGeometry width="80" height="40" as="geometry" />
        </mxCell>
        <mxCell id="ZqBJkxx_JJjRxXynTyVu-175" value="" style="shape=component;jettyWidth=8;jettyHeight=4;" vertex="1" parent="ZqBJkxx_JJjRxXynTyVu-174">
          <mxGeometry x="1" width="20" height="20" relative="1" as="geometry">
            <mxPoint x="-80" y="-60" as="offset" />
          </mxGeometry>
        </mxCell>
        <mxCell id="ZqBJkxx_JJjRxXynTyVu-176" value="CurrentState" style="shape=component;jettyWidth=8;jettyHeight=4;" vertex="1" parent="ZqBJkxx_JJjRxXynTyVu-174">
          <mxGeometry x="1" width="99" height="30" relative="1" as="geometry">
            <mxPoint x="50.5" y="-30" as="offset" />
          </mxGeometry>
        </mxCell>
        <mxCell id="ZqBJkxx_JJjRxXynTyVu-177" value="NextState" style="shape=component;jettyWidth=8;jettyHeight=4;" vertex="1" parent="ZqBJkxx_JJjRxXynTyVu-174">
          <mxGeometry x="1" width="99" height="30" relative="1" as="geometry">
            <mxPoint x="50.5" y="90" as="offset" />
          </mxGeometry>
        </mxCell>
        <mxCell id="ZqBJkxx_JJjRxXynTyVu-178" value="" style="endArrow=classic;html=1;exitX=0.5;exitY=1;exitDx=0;exitDy=0;entryX=0.5;entryY=0;entryDx=0;entryDy=0;" edge="1" parent="ZqBJkxx_JJjRxXynTyVu-174" source="ZqBJkxx_JJjRxXynTyVu-176" target="ZqBJkxx_JJjRxXynTyVu-177">
          <mxGeometry relative="1" as="geometry">
            <mxPoint x="156" y="40" as="sourcePoint" />
            <mxPoint x="234" y="70" as="targetPoint" />
          </mxGeometry>
        </mxCell>
        <mxCell id="ZqBJkxx_JJjRxXynTyVu-179" value="" style="shape=cloud;html=1;outlineConnect=0;" vertex="1" parent="ZqBJkxx_JJjRxXynTyVu-178">
          <mxGeometry width="30" height="20" relative="1" as="geometry">
            <mxPoint x="-15" y="-10" as="offset" />
          </mxGeometry>
        </mxCell>
        <mxCell id="ZqBJkxx_JJjRxXynTyVu-180" value="Animator" style="text;html=1;strokeColor=none;fillColor=none;align=center;verticalAlign=middle;whiteSpace=wrap;rounded=0;labelBackgroundColor=none;" vertex="1" parent="ZqBJkxx_JJjRxXynTyVu-164">
          <mxGeometry x="1915" y="520" width="130" height="50" as="geometry" />
        </mxCell>
        <mxCell id="ZqBJkxx_JJjRxXynTyVu-182" style="orthogonalLoop=1;jettySize=auto;html=1;curved=1;sourcePerimeterSpacing=5;targetPerimeterSpacing=5;exitX=0;exitY=0.7;exitDx=0;exitDy=0;entryX=0;entryY=0.5;entryDx=0;entryDy=0;" edge="1" parent="ZqBJkxx_JJjRxXynTyVu-164" source="ZqBJkxx_JJjRxXynTyVu-177" target="ZqBJkxx_JJjRxXynTyVu-143">
          <mxGeometry relative="1" as="geometry">
            <mxPoint x="1761.5" y="685" as="sourcePoint" />
            <mxPoint x="1761.5" y="645" as="targetPoint" />
            <Array as="points">
              <mxPoint x="1890" y="746" />
              <mxPoint x="1210" y="786" />
              <mxPoint x="1120" y="460" />
            </Array>
          </mxGeometry>
        </mxCell>
        <mxCell id="ZqBJkxx_JJjRxXynTyVu-148" value="&lt;div&gt;Enable &lt;br&gt;&lt;/div&gt;&lt;div&gt;GameObject&lt;/div&gt;" style="rhombus;whiteSpace=wrap;html=1;labelBackgroundColor=none;fontSize=21;" vertex="1" parent="ZqBJkxx_JJjRxXynTyVu-164">
          <mxGeometry x="1120" y="525" width="140" height="135" as="geometry" />
        </mxCell>
        <mxCell id="ZqBJkxx_JJjRxXynTyVu-183" value="Enter(State)" style="text;html=1;strokeColor=none;fillColor=none;align=center;verticalAlign=middle;whiteSpace=wrap;rounded=0;labelBackgroundColor=none;" vertex="1" parent="ZqBJkxx_JJjRxXynTyVu-164">
          <mxGeometry x="1390" y="716" width="130" height="50" as="geometry" />
        </mxCell>
        <mxCell id="ZqBJkxx_JJjRxXynTyVu-165" value="" style="endArrow=none;html=1;exitX=0;exitY=0;exitDx=0;exitDy=0;" edge="1" parent="ZqBJkxx_JJjRxXynTyVu-167" source="ZqBJkxx_JJjRxXynTyVu-109">
          <mxGeometry width="50" height="50" relative="1" as="geometry">
            <mxPoint x="560" y="34" as="sourcePoint" />
            <mxPoint x="1430" y="-160" as="targetPoint" />
          </mxGeometry>
        </mxCell>
        <mxCell id="ZqBJkxx_JJjRxXynTyVu-166" value="" style="endArrow=none;html=1;exitX=1;exitY=0;exitDx=0;exitDy=0;" edge="1" parent="ZqBJkxx_JJjRxXynTyVu-167" source="ZqBJkxx_JJjRxXynTyVu-139">
          <mxGeometry width="50" height="50" relative="1" as="geometry">
            <mxPoint x="1650" y="50" as="sourcePoint" />
            <mxPoint x="1450" y="-160" as="targetPoint" />
          </mxGeometry>
        </mxCell>
        <mxCell id="ZqBJkxx_JJjRxXynTyVu-31" value="TimelineSignal.Raise(MainStepState)" style="rounded=1;whiteSpace=wrap;html=1;labelBackgroundColor=none;strokeColor=none;" vertex="1" parent="ZqBJkxx_JJjRxXynTyVu-168">
          <mxGeometry x="1000" y="-10" width="210" height="60" as="geometry" />
        </mxCell>
        <mxCell id="ZqBJkxx_JJjRxXynTyVu-190" value="TimelineSignal.Raise(MainStepState)" style="rounded=1;whiteSpace=wrap;html=1;labelBackgroundColor=none;strokeColor=none;" vertex="1" parent="ZqBJkxx_JJjRxXynTyVu-168">
          <mxGeometry x="1410" y="-37" width="210" height="60" as="geometry" />
        </mxCell>
        <mxCell id="ZqBJkxx_JJjRxXynTyVu-198" value="" style="endArrow=none;html=1;exitX=1;exitY=0;exitDx=0;exitDy=0;" edge="1" parent="ZqBJkxx_JJjRxXynTyVu-168" source="ZqBJkxx_JJjRxXynTyVu-139">
          <mxGeometry width="50" height="50" relative="1" as="geometry">
            <mxPoint x="2360" y="152" as="sourcePoint" />
            <mxPoint x="1670" y="-112" as="targetPoint" />
          </mxGeometry>
        </mxCell>
        <mxCell id="ZqBJkxx_JJjRxXynTyVu-161" style="edgeStyle=orthogonalEdgeStyle;rounded=0;orthogonalLoop=1;jettySize=auto;html=1;exitX=1;exitY=0.5;exitDx=0;exitDy=0;fontSize=21;" edge="1" parent="1" source="ZqBJkxx_JJjRxXynTyVu-72" target="ZqBJkxx_JJjRxXynTyVu-28">
          <mxGeometry relative="1" as="geometry">
            <Array as="points">
              <mxPoint x="640" y="657" />
              <mxPoint x="640" y="260" />
              <mxPoint x="440" y="260" />
            </Array>
          </mxGeometry>
        </mxCell>
        <mxCell id="ZqBJkxx_JJjRxXynTyVu-186" value="" style="endArrow=none;html=1;entryX=0.025;entryY=1.003;entryDx=0;entryDy=0;entryPerimeter=0;" edge="1" parent="1">
          <mxGeometry width="50" height="50" relative="1" as="geometry">
            <mxPoint x="270.2" y="339.67" as="sourcePoint" />
            <mxPoint x="270.00000000000017" y="209.99999999999991" as="targetPoint" />
          </mxGeometry>
        </mxCell>
        <mxCell id="ZqBJkxx_JJjRxXynTyVu-187" value="" style="endArrow=none;html=1;entryX=0.025;entryY=1.003;entryDx=0;entryDy=0;entryPerimeter=0;" edge="1" parent="1">
          <mxGeometry width="50" height="50" relative="1" as="geometry">
            <mxPoint x="300.1999999999998" y="339.6700000000001" as="sourcePoint" />
            <mxPoint x="300" y="210" as="targetPoint" />
          </mxGeometry>
        </mxCell>
        <mxCell id="ZqBJkxx_JJjRxXynTyVu-188" style="orthogonalLoop=1;jettySize=auto;html=1;curved=1;sourcePerimeterSpacing=5;targetPerimeterSpacing=5;entryX=0;entryY=0.5;entryDx=0;entryDy=0;exitX=0.5;exitY=1;exitDx=0;exitDy=0;" edge="1" parent="1" source="ZqBJkxx_JJjRxXynTyVu-191" target="ZqBJkxx_JJjRxXynTyVu-42">
          <mxGeometry relative="1" as="geometry">
            <mxPoint x="270" y="340" as="sourcePoint" />
            <mxPoint x="60" y="540" as="targetPoint" />
            <Array as="points">
              <mxPoint x="280" y="320" />
              <mxPoint x="280" y="450" />
              <mxPoint x="-90" y="640" />
              <mxPoint x="-200" y="900" />
              <mxPoint x="-200" y="1060" />
            </Array>
          </mxGeometry>
        </mxCell>
        <mxCell id="ZqBJkxx_JJjRxXynTyVu-189" style="orthogonalLoop=1;jettySize=auto;html=1;curved=1;sourcePerimeterSpacing=5;targetPerimeterSpacing=5;" edge="1" parent="1">
          <mxGeometry relative="1" as="geometry">
            <mxPoint x="820" y="265" as="sourcePoint" />
            <mxPoint x="820" y="225" as="targetPoint" />
            <Array as="points">
              <mxPoint x="820" y="290" />
            </Array>
          </mxGeometry>
        </mxCell>
        <mxCell id="ZqBJkxx_JJjRxXynTyVu-191" value="" style="whiteSpace=wrap;html=1;labelBackgroundColor=#FF6666;imageAspect=0;fillColor=#D5E8D4;" vertex="1" parent="1">
          <mxGeometry x="270" y="170" width="10" height="20" as="geometry" />
        </mxCell>
        <mxCell id="ZqBJkxx_JJjRxXynTyVu-192" value="" style="whiteSpace=wrap;html=1;labelBackgroundColor=#FF6666;imageAspect=0;fillColor=#dae8fc;strokeColor=#6c8ebf;" vertex="1" parent="1">
          <mxGeometry x="70" y="170" width="200" height="20" as="geometry" />
        </mxCell>
        <mxCell id="ZqBJkxx_JJjRxXynTyVu-193" value="" style="whiteSpace=wrap;html=1;labelBackgroundColor=#FF6666;imageAspect=0;fillColor=#dae8fc;strokeColor=#6c8ebf;" vertex="1" parent="1">
          <mxGeometry x="280" y="170" width="10" height="20" as="geometry" />
        </mxCell>
        <mxCell id="ZqBJkxx_JJjRxXynTyVu-195" value="" style="whiteSpace=wrap;html=1;labelBackgroundColor=#FF6666;imageAspect=0;fillColor=#dae8fc;strokeColor=#6c8ebf;" vertex="1" parent="1">
          <mxGeometry x="471.75" y="170" width="200" height="20" as="geometry" />
        </mxCell>
        <mxCell id="ZqBJkxx_JJjRxXynTyVu-196" value="" style="whiteSpace=wrap;html=1;labelBackgroundColor=#FF6666;imageAspect=0;fillColor=#dae8fc;strokeColor=#6c8ebf;" vertex="1" parent="1">
          <mxGeometry x="683.5" y="170" width="10" height="20" as="geometry" />
        </mxCell>
        <mxCell id="ZqBJkxx_JJjRxXynTyVu-5" style="orthogonalLoop=1;jettySize=auto;html=1;curved=1;sourcePerimeterSpacing=5;targetPerimeterSpacing=5;entryX=0;entryY=0.5;entryDx=0;entryDy=0;exitX=0.5;exitY=1;exitDx=0;exitDy=0;" edge="1" parent="1" source="ZqBJkxx_JJjRxXynTyVu-20" target="ZqBJkxx_JJjRxXynTyVu-58">
          <mxGeometry relative="1" as="geometry">
            <mxPoint x="60" y="340" as="sourcePoint" />
            <mxPoint x="-840" y="984" as="targetPoint" />
            <Array as="points">
              <mxPoint x="60" y="320" />
              <mxPoint x="60" y="460" />
              <mxPoint x="-160" y="480" />
              <mxPoint x="-730" y="540" />
              <mxPoint x="-880" y="764" />
              <mxPoint x="-880" y="974" />
            </Array>
          </mxGeometry>
        </mxCell>
        <mxCell id="ZqBJkxx_JJjRxXynTyVu-197" value="" style="endArrow=none;html=1;exitX=0;exitY=0;exitDx=0;exitDy=0;" edge="1" parent="1" source="ZqBJkxx_JJjRxXynTyVu-139">
          <mxGeometry width="50" height="50" relative="1" as="geometry">
            <mxPoint x="-170" y="534" as="sourcePoint" />
            <mxPoint x="270" y="340" as="targetPoint" />
          </mxGeometry>
        </mxCell>
      </root>
    </mxGraphModel>
  </diagram>
</mxfile>
